<svg xmlns="http://www.w3.org/2000/svg" viewBox="0 0 64 64" aria-role="presentation" focusable="false">
  <path d="M61.576 45.838V7.155C61.613 4.25 59.663 2.3 56.715 2.3l-38.723.083c-2.777.042-4.727 2.117-4.727 4.525 0 2.45 2.117 4.44 4.607 4.44h12.576l17.017-.663-7.222 6.39-35.568 35.61c-.955.955-1.495 2.16-1.495 3.28 0 2.45 2.2 4.69 4.69 4.69 1.203 0 2.325-.457 3.32-1.452l35.568-35.57 6.432-7.263-.665 16.31v13.283c-.04 2.49 1.993 4.65 4.483 4.65 2.45 0 4.482-2.075 4.565-4.775h.003z"></path>
</svg>
